<svg width="20" height="20" viewBox="0 0 20 20" fill="none" xmlns="http://www.w3.org/2000/svg">
<g clip-path="url(#clip0_69_342)">
<path d="M15.6568 2.92898L10.0001 8.58574L4.34319 2.92885C3.95296 2.53863 3.31928 2.53863 2.92893 2.92898C2.53871 3.3192 2.53871 3.95288 2.92893 4.34311L8.58582 10L2.92893 15.6569C2.53871 16.0471 2.53871 16.6808 2.92893 17.071C3.31928 17.4614 3.95296 17.4614 4.34319 17.0712L10.0001 11.4143L15.6568 17.071C16.0472 17.4614 16.6809 17.4614 17.0711 17.0712C17.4615 16.6808 17.4615 16.0471 17.0711 15.6568L11.4143 10L17.0711 4.34324C17.4615 3.95288 17.4615 3.31921 17.0711 2.92885C16.6809 2.53863 16.0472 2.53863 15.6568 2.92898Z" fill="white"/>
</g>
<defs>
<clipPath id="clip0_69_342">
<rect width="20" height="20" fill="white"/>
</clipPath>
</defs>
</svg>
