<svg width="154" height="33" viewBox="0 0 154 33" fill="none" xmlns="http://www.w3.org/2000/svg">
<path d="M12.101 24.0001V17.4001C11.813 17.5441 11.461 17.6721 11.045 17.7841C10.645 17.8801 10.213 17.9601 9.74894 18.0241C9.30094 18.0721 8.85294 18.0961 8.40494 18.0961C6.21294 18.0961 4.52494 17.5041 3.34094 16.3201C2.15694 15.1361 1.56494 13.3601 1.56494 10.9921V7.08008H4.63694V10.8481C4.63694 12.4481 4.98094 13.6161 5.66894 14.3521C6.35694 15.0881 7.38094 15.4561 8.74094 15.4561C9.31694 15.4561 9.89294 15.4001 10.469 15.2881C11.061 15.1601 11.605 14.9681 12.101 14.7121V7.08008H15.173V24.0001H12.101ZM18.8753 24.0001V7.08008H21.7313V19.7041H21.1793L30.8273 7.08008H33.1313V24.0001H30.2753V11.3521H30.8033L21.1553 24.0001H18.8753ZM40.9085 24.0001V9.64808H35.1005V7.08008H49.7885V9.64808H43.9805V24.0001H40.9085ZM47.8717 24.0001L55.5277 7.08008H58.0477L65.7037 24.0001H62.5837L60.5437 19.2481L61.8397 20.0881H51.7117L53.0077 19.2481L50.9917 24.0001H47.8717ZM56.7517 10.4161L53.3917 18.4081L52.7677 17.6401H60.7837L60.1837 18.4081L56.7997 10.4161H56.7517Z" fill="#733119"/>
<mask id="mask0_15_3" style="mask-type:luminance" maskUnits="userSpaceOnUse" x="66" y="0" width="18" height="33">
<path d="M66 0H84V33H66V0Z" fill="white"/>
</mask>
<g mask="url(#mask0_15_3)">
<path d="M66 2H84V-2H66V2Z" fill="#733119"/>
</g>
<path d="M67.8714 24.0001V7.08008H70.7274V19.7041H70.1754L79.8234 7.08008H82.1274V24.0001H79.2714V11.3521H79.7994L70.1514 24.0001H67.8714Z" fill="#733119"/>
<path d="M103.904 24.2401C102.144 24.2401 100.632 23.8881 99.3676 23.1841C98.1196 22.4641 97.1596 21.4561 96.4876 20.1601C95.8156 18.8481 95.4796 17.3041 95.4796 15.5281C95.4796 13.7521 95.8156 12.2161 96.4876 10.9201C97.1596 9.62409 98.1196 8.62409 99.3676 7.92009C100.632 7.20009 102.144 6.84009 103.904 6.84009C105.04 6.84009 106.112 7.01609 107.12 7.36809C108.144 7.72009 108.984 8.22409 109.64 8.88009L108.632 11.3281C107.912 10.7201 107.176 10.2801 106.424 10.0081C105.672 9.72009 104.864 9.57609 104 9.57609C102.288 9.57609 100.984 10.0961 100.088 11.1361C99.1916 12.1601 98.7436 13.6241 98.7436 15.5281C98.7436 17.4321 99.1916 18.9041 100.088 19.9441C100.984 20.9841 102.288 21.5041 104 21.5041C104.864 21.5041 105.672 21.3681 106.424 21.0961C107.176 20.8081 107.912 20.3601 108.632 19.7521L109.64 22.2001C108.984 22.8401 108.144 23.3441 107.12 23.7121C106.112 24.0641 105.04 24.2401 103.904 24.2401ZM110.145 24.0001L117.801 7.08009H120.321L127.977 24.0001H124.857L122.817 19.2481L124.113 20.0881H113.985L115.281 19.2481L113.265 24.0001H110.145ZM119.025 10.4161L115.665 18.4081L115.041 17.6401H123.057L122.457 18.4081L119.073 10.4161H119.025ZM129.876 24.0001V7.08009H132.444L138.828 18.8641H138.06L144.42 7.08009H146.94V24.0001H144.156V11.6401H144.684L139.308 21.4321H137.508L132.084 11.6161H132.66V24.0001H129.876Z" fill="#733119"/>
<mask id="mask1_15_3" style="mask-type:luminance" maskUnits="userSpaceOnUse" x="144" y="21" width="10" height="10">
<path d="M154 21H144V31H154V21Z" fill="white"/>
</mask>
<g mask="url(#mask1_15_3)">
<path d="M154 31H156V33H154V31ZM144 29H154V33H144V29ZM152 31V21H156V31H152Z" fill="#733119"/>
</g>
</svg>
